<?xml version="1.0" encoding="UTF-8" standalone="no"?>
<!-- Created with Inkscape (http://www.inkscape.org/) -->

<svg
   width="200mm"
   height="200mm"
   viewBox="0 0 200 200"
   version="1.1"
   id="svg1"
   inkscape:version="1.4.3 (1:1.4.3+202512261035+0d15f75042)"
   sodipodi:docname="EngraveCut.svg"
   xmlns:inkscape="http://www.inkscape.org/namespaces/inkscape"
   xmlns:sodipodi="http://sodipodi.sourceforge.net/DTD/sodipodi-0.dtd"
   xmlns="http://www.w3.org/2000/svg"
   xmlns:svg="http://www.w3.org/2000/svg">
  <sodipodi:namedview
     id="namedview1"
     pagecolor="#ffffff"
     bordercolor="#000000"
     borderopacity="0.25"
     inkscape:showpageshadow="2"
     inkscape:pageopacity="0.0"
     inkscape:pagecheckerboard="0"
     inkscape:deskcolor="#d1d1d1"
     inkscape:document-units="mm"
     inkscape:zoom="1"
     inkscape:cx="445"
     inkscape:cy="554"
     inkscape:window-width="1920"
     inkscape:window-height="1088"
     inkscape:window-x="0"
     inkscape:window-y="40"
     inkscape:window-maximized="1"
     inkscape:current-layer="layer4" />
  <defs
     id="defs1" />
  <g
     inkscape:label="cut"
     inkscape:groupmode="layer"
     id="layer1">
    <path
       id="rect1"
       style="fill:none;stroke:#000000;stroke-width:0.335364"
       inkscape:label="rectangle"
       d="M 0.16768201,100.16769 H 99.832317 v 99.66463 H 0.16768201 Z" />
  </g>
  <g
     inkscape:groupmode="layer"
     id="layer4"
     inkscape:label="engrave">
    <g
       id="g2">
      <path
         id="path1"
         style="fill:none;stroke:#000000;stroke-width:0.246768"
         inkscape:label="circle"
         d="M 89.87661,150 A 39.876614,39.876617 0 0 1 49.999996,189.87662 39.876614,39.876617 0 0 1 10.123383,150 39.876614,39.876617 0 0 1 49.999996,110.12338 39.876614,39.876617 0 0 1 89.87661,150 Z" />
      <path
         style="display:inline;fill:none;stroke:#000000;stroke-width:0.246768"
         d="m 28.718529,116.27697 -12.441554,12.44155 m -3.534618,7.07016 23.046324,-23.04633 m 5.098904,-1.56337 -29.708598,29.7086 m -0.764065,4.2996 34.772262,-34.77226 m 3.814566,-0.27903 -38.865861,38.86586 m 0.0642,3.47133 42.272997,-42.27299 m 3.205866,0.32966 -45.149194,45.1492 m 0.5473,2.98823 47.590127,-47.59012 m 2.803306,0.73222 -49.661207,49.66121 m 0.895049,2.64048 51.406643,-51.40664 m 2.494509,1.04103 -52.860127,52.86012 m 1.176844,2.35869 54.041972,-54.04197 m 2.233195,1.30234 -54.972828,54.97283 m 1.421921,2.11361 55.664518,-55.66452 m 1.997771,1.53777 -56.124526,56.12452 m 1.650345,1.88519 56.359369,-56.35937 m 1.77414,1.7614 -56.372116,56.37211 m 1.872368,1.66317 56.162915,-56.16292 m 1.550891,1.98465 -55.729164,55.72916 m 2.100186,1.43535 55.064326,-55.06433 m 1.316933,2.2186 -54.162658,54.16266 m 2.344661,1.19087 53.008868,-53.00887 m 1.057911,2.47763 -51.589157,51.58915 m 2.623309,0.91223 49.878073,-49.87807 m 0.751889,2.78364 -47.846319,47.84632 m 2.96536,0.57017 45.451132,-45.45113 m 0.356701,3.17884 -42.628999,42.62899 m 3.437536,0.098 39.289459,-39.28946 m -0.2338,3.76934 -35.286324,35.28632 m 4.232986,-0.69745 30.355885,-30.35589 m -1.442278,4.97782 -23.935795,23.93579 m 6.676072,-3.14054 14.119184,-14.11918 m -68.081137,1.04253 12.441554,12.44156 m 7.070152,3.53462 -23.046324,-23.04633 m -1.56337,-5.0989 29.708598,29.7086 m 4.299599,0.76406 -34.772262,-34.77226 m -0.279033,-3.81457 38.865861,38.86586 m 3.471335,-0.0642 -42.272997,-42.27299 m 0.329668,-3.20587 45.149194,45.1492 m 2.988233,-0.54731 -47.590127,-47.59012 m 0.732227,-2.80331 49.661207,49.66121 m 2.640484,-0.89505 -51.406643,-51.40664 m 1.041025,-2.49451 52.860127,52.86012 M 68.964172,185.0778 14.9222,131.03583 m 1.302338,-2.2332 54.972828,54.97283 m 2.113612,-1.42192 -55.664518,-55.66452 m 1.537763,-1.99777 56.124526,56.12452 m 1.885188,-1.65034 -56.359369,-56.35937 m 1.761394,-1.77414 56.372116,56.37211 m 1.663166,-1.87236 -56.162915,-56.16292 m 1.984642,-1.55089 55.729164,55.72916 m 1.435348,-2.10018 -55.064326,-55.06433 m 2.2186,-1.31693 54.162658,54.16266 m 1.190872,-2.34467 -53.008868,-53.00886 m 2.477622,-1.05791 51.589157,51.58915 m 0.912225,-2.62331 -49.878073,-49.87807 m 2.783644,-0.75189 47.846319,47.84632 m 0.570173,-2.96536 -45.451132,-45.45113 m 3.178833,-0.35671 42.628999,42.629 m 0.098,-3.43753 -39.289459,-39.28946 m 3.769335,0.2338 35.286324,35.28632 m -0.697453,-4.23298 -30.355885,-30.35589 m 4.977812,1.44228 23.935795,23.93579 m -3.140539,-6.67607 -14.119184,-14.11918"
         id="path2"
         inkscape:label="crosshatch" />
    </g>
  </g>
</svg>
